<svg id="SvgjsSvg1001" width="288" height="288" xmlns="http://www.w3.org/2000/svg" version="1.1" xmlns:xlink="http://www.w3.org/1999/xlink" xmlns:svgjs="http://svgjs.com/svgjs"><defs id="SvgjsDefs1002"></defs><g id="SvgjsG1008" transform="matrix(0.9167,0,0,0.9167,11.99653460998536,11.99661786422729)"><svg xmlns="http://www.w3.org/2000/svg" viewBox="0 0 512 512" width="288" height="288"><g data-name="Layer 2" fill="#000000" class="color000 svgShape"><path fill="#010101" d="M256,391.64a135.61,135.61,0,1,1,95.92-39.72A134.76,134.76,0,0,1,256,391.64Zm0-256A120.41,120.41,0,1,0,376.41,256,120.55,120.55,0,0,0,256,135.59Z" class="color010101 svgShape"></path><path fill="#000000" d="M301.13,323a21.85,21.85,0,0,1-15.5-6.41L256,287l-29.63,29.63a21.91,21.91,0,0,1-31-31L225,256l-29.63-29.63a21.91,21.91,0,0,1,31-31L256,225l29.63-29.63a21.91,21.91,0,0,1,31,31L287,256l29.63,29.63A21.91,21.91,0,0,1,301.13,323ZM256,265.44l40.41,40.4a6.67,6.67,0,0,0,9.43-9.43L265.44,256l40.4-40.41a6.67,6.67,0,1,0-9.43-9.43L256,246.56l-40.41-40.4a6.67,6.67,0,0,0-9.43,9.43L246.56,256l-40.4,40.41a6.67,6.67,0,0,0,9.43,9.43Z" class="color2baae2 svgShape"></path></g></svg></g></svg>