<svg xmlns="http://www.w3.org/2000/svg" enable-background="new 0 0 100 100" viewBox="0 0 100 100"><path d="M93.6,49.1l-17.2-5.8l-8.5-15.6c-2.3-4.2-6.7-6.8-11.4-6.8H25.5c-4.8,0-9.1,2.6-11.4,6.8L5.2,44c0,0,0,0,0,0.1	c-0.1,0.1-0.1,0.2-0.1,0.3c0,0,0,0.1,0,0.1c0,0.1,0,0.3,0,0.4c0,0,0,0,0,0v24c0,1.1,0.9,2,2,2h8.2c0.9,4.6,5,8,9.8,8s8.9-3.4,9.8-8	h30.4c0.9,4.6,5,8,9.8,8s8.9-3.4,9.8-8H93c1.1,0,2-0.9,2-2V51C95,50.1,94.5,49.4,93.6,49.1z M38,25h18.5c3.3,0,6.3,1.8,7.9,4.7	L71.6,43H38V25z M17.6,29.7c1.6-2.9,4.6-4.7,7.9-4.7H34v18H10.4L17.6,29.7z M15.2,67H9v-4h8C16.1,64.2,15.5,65.5,15.2,67z M25,75	c-3.3,0-6-2.7-6-6s2.7-6,6-6s6,2.7,6,6S28.3,75,25,75z M75,75c-3.3,0-6-2.7-6-6s2.7-6,6-6s6,2.7,6,6S78.3,75,75,75z M91,67h-6.2	c-0.9-4.6-5-8-9.8-8s-8.9,3.4-9.8,8H34.8c-0.9-4.6-5-8-9.8-8H9V47h65.7L91,52.4V67z"/></svg>