<svg id="SvgjsSvg1024" width="288" height="288" xmlns="http://www.w3.org/2000/svg" version="1.1" xmlns:xlink="http://www.w3.org/1999/xlink" xmlns:svgjs="http://svgjs.com/svgjs"><defs id="SvgjsDefs1025"></defs><g id="SvgjsG1026" transform="matrix(0.9167,0,0,0.9167,12.226661091995254,12.182625000000002)"><svg xmlns="http://www.w3.org/2000/svg" enable-background="new 0 0 128 128" viewBox="0 0 128 128" width="288" height="288"><circle cx="90" cy="102" r="8" fill="none" stroke="#ffbf66" stroke-linecap="round" stroke-linejoin="round" stroke-miterlimit="10" stroke-width="4" class="colorStroke00aeef svgStroke"></circle><circle cx="50" cy="102" r="8" fill="none" stroke="#ffbf66" stroke-linecap="round" stroke-linejoin="round" stroke-miterlimit="10" stroke-width="4" class="colorStroke00aeef svgStroke"></circle><path fill="none" stroke="#ffbf66" stroke-linecap="round" stroke-linejoin="round" stroke-miterlimit="10" stroke-width="4" d="M30 34h83.1c2.8 0 4.7 2.8 3.7 5.4l-15.9 41.4C99.7 84 96.7 86 93.4 86H46.6c-3.8 0-7.1-2.7-7.9-6.5L30 34zM29.9 34l-1.5-7.6c-.7-3.7-4-6.4-7.8-6.4h-7.2" class="colorStroke00aeef svgStroke"></path><line x1="90.9" x2="93.9" y1="46" y2="46" fill="none" stroke="#ffbf66" stroke-linecap="round" stroke-linejoin="round" stroke-miterlimit="10" stroke-width="4" class="colorStroke00aeef svgStroke"></line><line x1="33" x2="81.9" y1="46" y2="46" fill="none" stroke="#ffbf66" stroke-linecap="round" stroke-linejoin="round" stroke-miterlimit="10" stroke-width="4" class="colorStroke00aeef svgStroke"></line></svg></g></svg>