<svg xmlns="http://www.w3.org/2000/svg" data-name="Layer 1" viewBox="0 0 512 512"><polygon fill="#4a4f60" points="400.973 402.978 396.466 392.245 476.675 349.923 482.589 381.157 400.973 402.978"/><path fill="#f66" d="M256.39,112.41992V221.27a10.0037,10.0037,0,0,1-10,10H127.87a10.00362,10.00362,0,0,1-10-10V112.41992a9.99729,9.99729,0,0,1,10-10H246.39A9.99737,9.99737,0,0,1,256.39,112.41992Z"/><rect width="137.638" height="27.345" x="146.127" y="231.272" fill="#4a4f60" rx="13.673"/><path fill="#3b3f4d" d="M270.09277,231.272h-30a13.67261,13.67261,0,1,1,0,27.34522h30a13.67261,13.67261,0,1,0,0-27.34522Z"/><path fill="#4a4f60" d="M224.20959,386.98535a48.81445,48.81445,0,0,1-97.6289,0V372.35582l97.6289-3.01547Z"/><path fill="#3b3f4d" d="M209.20959,369.80371v17.18164a48.82529,48.82529,0,0,1-41.31445,48.24024,48.84668,48.84668,0,0,0,56.31445-48.24024v-17.645Z"/><path fill="#fff" d="M156.58846,386.9853a18.80666,18.80666,0,1,0,37.61331,0V373.86959H156.58846Z"/><path fill="#ffe966" d="M378.77612,378.90356,92.46423,382.6272c-16.75818-28.78491,7.80249-87.47071,49.4032-111.51221,21.85608-12.63074,44.17-13.24548,56.72009-12.50195h76.64454c-15.99891,24.35766-14.33155,55.44177,3.10315,75.40344,14.06591,16.10461,36.72985,23.07825,56.98339,18.61816,48.55384-10.69214,45.522-66.83728,37.49134-104.76477-.605-2.857-10.89991-35.73887-15.2079-48.34361l33.88356,9.47728q8.09711,27.07782,17.58691,55.45007,10.18176,30.34845,20.81055,58.57154Q404.32959,350.9643,378.77612,378.90356Z"/><path fill="#ffe236" d="M263.33521 334.01648c12.95422 14.83179 33.2 21.91077 52.14025 19.45435a59.38261 59.38261 0 0 1-37.14025-19.45435c-17.4347-19.96167-19.10206-51.04578-3.10315-75.40344h-15C244.23315 282.9707 245.90051 314.05481 263.33521 334.01648zM409.07251 264.45361q-9.51105-28.3493-17.58691-55.45007h-15q8.09711 27.07782 17.58691 55.45007c6.78784 20.2323 20.81055 58.57154 20.81055 58.57154h15S415.86035 284.68591 409.07251 264.45361zM198.58752 258.613a115.83732 115.83732 0 0 0-13.86 0z"/><path fill="#4a4f60" d="M482.52,353.58071A48.81882,48.81882,0,1,1,400.973,402.97786"/><path fill="#3b3f4d" d="M482.52,353.58069l-10.06958,6.09973a48.79774,48.79774,0,0,1-32.7041,75.834A48.80784,48.80784,0,0,0,482.52,353.58069Z"/><path fill="#fff" d="M456.22827,370.77979a18.80946,18.80946,0,1,1-27.82947,16.78735,19.977,19.977,0,0,1,11.96863-17.47986C448.02417,366.94385,455.0542,370.21082,456.22827,370.77979Z"/><path fill="#ffe236" d="M92.46767,382.62916c11.48058-53.16468,61.10558-83.15679,101.46537-72.81627,29.24327,7.49238,52.31948,35.82548,57.703,70.76537Z"/><path fill="#ffdf1f" d="M193.93311,309.81287a69.17046,69.17046,0,0,0-31.60743-.38538c.53711.12268,1.07349.24854,1.60743.38538,29.24316,7.49231,52.31933,35.82556,57.70288,70.76538L92.55627,382.24146c-.02856.12988-.06054.25756-.08862.38769l159.16834-2.0509C246.25244,345.63843,223.17627,317.30518,193.93311,309.81287Z"/><path fill="#ffe236" d="M424.17477,322.53308h3.46059a59.98073,59.98073,0,0,1,59.98073,59.98073v.00009a0,0,0,0,1,0,0H364.194a0,0,0,0,1,0,0v-.00007a59.98075,59.98075,0,0,1,59.98075-59.98075Z" transform="rotate(-30.755 425.905 352.523)"/><path fill="#4a4f60" d="M353.6709 194.45752H318.44141a7.5 7.5 0 0 1 0-15H353.6709a7.5 7.5 0 0 1 0 15zM87.87012 154.08105H45.9707a7.5 7.5 0 1 1 0-15H87.87012a7.5 7.5 0 0 1 0 15zM87.87012 184.08105H30.9707a7.5 7.5 0 1 1 0-15H87.87012a7.5 7.5 0 0 1 0 15zM87.87012 214.08105H15.9707a7.5 7.5 0 1 1 0-15H87.87012a7.5 7.5 0 0 1 0 15z"/><path fill="#ff4e4e" d="M256.39,112.41992V200.49a69.99041,69.99041,0,0,1-62.28-98.07007h52.28A9.99737,9.99737,0,0,1,256.39,112.41992Z"/><ellipse cx="258.221" cy="130.507" fill="#63ea86" rx="55" ry="55.007"/><path fill="#4fe777" d="M258.22131,75.5A55.21139,55.21139,0,0,0,246.91382,76.669a55.01611,55.01611,0,0,1,0,107.67639A55.00907,55.00907,0,1,0,258.22131,75.5Z"/><path fill="#fff" d="M279.84961,138.00732H258.22168a7.50006,7.50006,0,0,1-7.5-7.5V102.15186a7.5,7.5,0,0,1,15,0v20.85546h14.12793a7.5,7.5,0,1,1,0,15Z"/><path fill="#4a4f60" d="M504.5,444H7.5a7.5,7.5,0,0,1,0-15h497a7.5,7.5,0,0,1,0,15Z"/><path fill="#ffe236" d="M375.71661,164.91151h26.36525a4,4,0,0,1,4,4v36.092a4,4,0,0,1-4,4H375.71661a22.046,22.046,0,0,1-22.046-22.046v0a22.046,22.046,0,0,1,22.046-22.046Z"/><path fill="#ffdf1f" d="M402.08179,164.9115h-15a4,4,0,0,1,4,4v36.09192a3.99988,3.99988,0,0,1-4,4h15a3.99988,3.99988,0,0,0,4-4V168.9115A4,4,0,0,0,402.08179,164.9115Z"/></svg>