<svg xmlns="http://www.w3.org/2000/svg" xmlns:svgjs="http://svgjs.com/svgjs" xmlns:xlink="http://www.w3.org/1999/xlink" id="SvgjsSvg1018" width="288" height="288" version="1.1"><g id="SvgjsG1020" transform="matrix(0.9167,0,0,0.9167,11.995200158882142,11.995087988090518)"><svg xmlns="http://www.w3.org/2000/svg" width="288" height="288" enable-background="new 0 0 48 48" viewBox="0 0 48 48"><path fill="#ffbf66" d="M39,16c-0.5527,0-1,0.4473-1,1v27h-7v-9c0-0.5527-0.4473-1-1-1s-1,0.4473-1,1v9H19V32h11c0.5527,0,1-0.4473,1-1 s-0.4473-1-1-1H18c-0.5527,0-1,0.4473-1,1v13h-7V17c0-0.5527-0.4473-1-1-1s-1,0.4473-1,1v28c0,0.5527,0.4473,1,1,1h9h12h9 c0.5527,0,1-0.4473,1-1V17C40,16.4473,39.5527,16,39,16z" class="color000 svgShape"/><path fill="#ffbf66" d="M46.5371,16.1563l-22-14c-0.3281-0.209-0.7461-0.209-1.0742,0l-22,14c-0.4658,0.2969-0.6035,0.915-0.3066,1.3809 c0.2959,0.4639,0.9131,0.6025,1.3809,0.3066L24,4.1855l21.4629,13.6582C45.6299,17.9492,45.8154,18,45.999,18 c0.3301,0,0.6543-0.1641,0.8447-0.4629C47.1406,17.0713,47.0029,16.4531,46.5371,16.1563z" class="color000 svgShape"/></svg></g></svg>