<svg xmlns="http://www.w3.org/2000/svg" xmlns:svgjs="http://svgjs.com/svgjs" xmlns:xlink="http://www.w3.org/1999/xlink" id="SvgjsSvg1001" width="288" height="288" version="1.1"><g id="SvgjsG1008" transform="matrix(0.9167,0,0,0.9167,11.995202224349981,11.995200000000011)"><svg xmlns="http://www.w3.org/2000/svg" width="288" height="288" viewBox="0 0 24 24"><g fill="#c72525" class="color000 svgShape" data-name="&amp;lt;Group&amp;gt;"><circle cx="12" cy="7" r="5.5" fill="none" stroke="#ffbf66" stroke-linecap="round" stroke-linejoin="round" class="colorStroke303c42 svgStroke" data-name="&amp;lt;Path&amp;gt;"/><path fill="none" stroke="#ffbf66" stroke-linecap="round" stroke-linejoin="round" d="M12,14.5a18.74,18.74,0,0,0-8.31,2.2A4,4,0,0,0,1.5,20.27V21A1.5,1.5,0,0,0,3,22.5H21A1.5,1.5,0,0,0,22.5,21v-.73a4,4,0,0,0-2.19-3.57A18.74,18.74,0,0,0,12,14.5Z" class="colorStroke303c42 svgStroke" data-name="&amp;lt;Path&amp;gt;"/></g></svg></g></svg>