<svg xmlns="http://www.w3.org/2000/svg" enable-background="new 0 0 66 66" viewBox="0 0 66 66"><path d="M63.6,22.9L34.8,4.5c-1.1-0.7-2.5-0.7-3.6,0L2.4,22.9c-1.6,1-1.8,3.3-0.5,4.7c1,0.9,2.5,1.1,3.7,0.4l0.8-0.5v31.7
		c0,1.6,1.3,2.9,2.9,2.9h47.4c1.6,0,2.9-1.3,2.9-2.9V27.4l0.8,0.5c2,1.3,4.6-0.2,4.6-2.5C65,24.4,64.5,23.4,63.6,22.9z M51.7,60.1
		H38.4V43.2c0-3.7,3-6.7,6.7-6.7c3.7,0,6.7,3,6.7,6.7V60.1z M57.7,59.1c0,0.5-0.4,1-1,1h-4V43.2c0-4.2-3.4-7.6-7.6-7.6
		c-4.2,0-7.6,3.4-7.6,7.6v16.9H9.3c-0.5,0-1-0.4-1-1V26.2l24.2-15.4v6.1c-4.3,0.2-7.8,3.8-7.8,8.2c0,4.5,3.7,8.2,8.2,8.2
		c4.5,0,8.2-3.7,8.2-8.2c0-4.3-3.3-8-7.8-8.2v-6.1l24.2,15.4V59.1z M37.4,30.9l-3-3c0.6-0.3,1.1-0.8,1.4-1.4l3.1,3.1
		C38.4,30,37.9,30.4,37.4,30.9z M28.6,19.2l3,3c-0.6,0.3-1.1,0.8-1.4,1.4l-3.1-3.1C27.6,20.1,28.1,19.7,28.6,19.2z M35.1,25
		c0,1.2-0.9,2.1-2.1,2.1s-2.1-0.9-2.1-2.1c0-1.2,0.9-2.1,2.1-2.1S35.1,23.9,35.1,25z M26.7,21.5l3.3,3.3c0,0.1,0,0.1,0,0.2
		c0,0.1,0,0.1,0,0.2l-3.3,3.3C25.4,26.4,25.4,23.7,26.7,21.5z M30.2,26.4c0.3,0.6,0.8,1.1,1.4,1.4l-3.1,3.1c-0.5-0.4-1-0.9-1.4-1.4
		L30.2,26.4z M32.8,28.1c0.1,0,0.1,0,0.2,0c0.1,0,0.1,0,0.2,0l3.3,3.3c-1,0.6-2.3,0.9-3.5,0.9c-1.3,0-2.5-0.3-3.5-0.9L32.8,28.1z
		 M39.4,28.6L36,25.3c0-0.1,0-0.1,0-0.2c0-0.1,0-0.1,0-0.2l3.3-3.3c0.6,1.1,0.9,2.3,0.9,3.5C40.3,26.3,39.9,27.5,39.4,28.6z
		 M35.8,23.7c-0.3-0.6-0.8-1.1-1.4-1.4l3.1-3.1c0.6,0.5,1,0.9,1.4,1.4L35.8,23.7z M33.2,22c-0.1,0-0.1,0-0.2,0c-0.1,0-0.1,0-0.2,0
		l-3.3-3.3c1-0.6,2.3-0.9,3.5-0.9c1.3,0,2.5,0.3,3.5,0.9L33.2,22z M61.5,26.3L33.5,8.4c-0.2-0.1-0.3-0.2-0.5-0.2s-0.4,0.1-0.5,0.2
		L4.5,26.3c-0.4,0.3-0.9,0.2-1.3-0.1c-0.5-0.5-0.4-1.3,0.2-1.6L32.2,6.1c0.5-0.3,1.1-0.3,1.5,0l28.8,18.4c0.3,0.2,0.5,0.5,0.5,0.9
		C63.1,26.3,62.1,26.7,61.5,26.3z"/><path d="M47.3 48.1c0 .9.7 1.6 1.6 1.6.9 0 1.6-.7 1.6-1.6s-.7-1.6-1.6-1.6C48 46.5 47.3 47.2 47.3 48.1zM49.4 48.1c0 .3-.3.6-.6.6-.3 0-.6-.3-.6-.6 0-.3.3-.6.6-.6C49.2 47.5 49.4 47.8 49.4 48.1zM30.4 35.5H13c-.3 0-.5.2-.5.5v17.4c0 .3.2.5.5.5h17.4c.3 0 .5-.2.5-.5V36C30.8 35.7 30.6 35.5 30.4 35.5zM29.9 44.2h-7.7v-7.7h7.7V44.2zM21.2 36.5v7.7h-7.7v-7.7H21.2zM13.4 45.2h7.7v7.7h-7.7V45.2zM22.1 52.9v-7.7h7.7v7.7H22.1z"/></svg>