<svg id="SvgjsSvg1001" width="288" height="288" xmlns="http://www.w3.org/2000/svg" version="1.1" xmlns:xlink="http://www.w3.org/1999/xlink" xmlns:svgjs="http://svgjs.com/svgjs"><defs id="SvgjsDefs1002"></defs><g id="SvgjsG1008" transform="matrix(0.9167,0,0,0.9167,11.256898363685607,11.25597065086366)"><svg xmlns="http://www.w3.org/2000/svg" viewBox="0 0 24 24" width="288" height="288"><path d="M3.624,15a8.03,8.03,0,0,0,10.619.659l5.318,5.318a1,1,0,0,0,1.414-1.414l-5.318-5.318A8.04,8.04,0,0,0,3.624,3.624,8.042,8.042,0,0,0,3.624,15Zm1.414-9.96a6.043,6.043,0,1,1-1.77,4.274A6,6,0,0,1,5.038,5.038Z" fill="#ffbf66" class="color000 svgShape"></path></svg></g></svg>